# Blender v2.92.0 OBJ File: 'TRABALHO.blend'
# www.blender.org
mtllib casa-chao-parque.mtl
o chao_parque_Cube.007
v 6.495390 0.500000 -7.424999
v -7.380054 0.500000 10.077672
v 6.495390 0.500000 1.643485
v -7.380054 0.500000 1.692985
v 6.495390 0.500000 -2.341473
v 6.495390 0.500000 -2.296130
v 6.495390 0.500000 -5.049818
v -1.331126 0.500000 -7.424999
v 0.280573 0.500000 -7.424999
v 0.343411 0.500000 -7.424999
v -1.393964 0.500000 10.077671
v -1.331126 0.500000 10.077671
v 0.280573 0.500000 10.077671
v -1.331126 0.500000 1.643484
v 0.280573 0.500000 1.643484
v 0.343411 0.500000 1.643484
v -1.393964 0.500000 1.692984
v -1.331126 0.500000 1.692984
v 0.280573 0.500000 1.692984
v -1.331126 0.500000 -2.341473
v 0.280573 0.500000 -2.341473
v 0.343411 0.500000 -2.341473
v -1.331126 0.500000 -2.296130
v 0.280573 0.500000 -2.296130
v 0.343411 0.500000 -2.296130
v -1.331126 0.500000 -5.097195
v 0.280573 0.500000 -5.097195
v -1.331126 0.500000 -5.049818
v 0.280573 0.500000 -5.049818
v 0.343411 0.500000 -5.049818
v 0.343411 0.500000 1.762500
v 0.280573 0.500000 1.762500
v 0.343411 0.500000 2.837500
v 0.280573 0.500000 2.837500
v 0.343411 0.500000 0.452500
v 0.280573 0.500000 0.452500
v 0.280573 0.500000 1.527500
v 0.343411 0.500000 1.527500
v 0.343411 0.500000 -3.537500
v 0.280573 0.500000 -3.537500
v 0.280573 0.500000 -2.462500
v 0.343411 0.500000 -2.462500
v -1.393964 0.500000 8.082500
v -1.331126 0.500000 8.082500
v -1.393964 0.500000 9.957500
v -1.331126 0.500000 9.957500
vt -1.274798 0.312364
vt 0.228940 -1.793913
vt 0.228940 0.312364
vt 0.244725 2.018094
vt 0.649592 2.006192
vt 0.649592 2.018094
vt 2.210787 2.602850
vt 0.665378 2.006192
vt 2.210787 2.006192
vt 0.244725 2.602850
vt 0.649592 2.602850
vt 0.244725 1.325842
vt 0.649592 1.314451
vt 0.649592 1.325842
vt 2.210787 1.325842
vt 0.244725 2.006192
vt 0.244725 0.324799
vt 0.649592 0.312364
vt 0.649592 0.324799
vt 0.665378 1.314451
vt 2.210787 0.324799
vt 2.210787 1.314451
vt 0.244725 1.314451
vt 0.244725 0.312364
vt 0.649592 -1.793913
vt 0.649592 0.294902
vt 0.665378 0.024856
vt 0.665378 0.294902
vt 0.649592 0.353935
vt 0.665378 0.623981
vt 0.649592 0.623981
vt 0.649592 1.356244
vt 0.665378 1.626290
vt 0.649592 1.626290
vt 0.244725 -1.763726
vt 0.228940 -1.292716
vt 0.228940 -1.763726
vt -1.274798 -1.793914
vt 0.665378 2.602850
vt 0.665378 1.325842
vt 0.665378 0.324799
vt 0.244725 -1.793913
vt 0.649592 0.024856
vt 0.665378 0.353935
vt 0.665378 1.356244
vt 0.244725 -1.292716
vn 0.0000 1.0000 0.0000
usemtl Material.003
s off
f 4/1/1 11/2/1 17/3/1
f 26/4/1 29/5/1 27/6/1
f 1/7/1 30/8/1 7/9/1
f 8/10/1 27/6/1 9/11/1
f 20/12/1 24/13/1 21/14/1
f 30/8/1 5/15/1 7/9/1
f 28/16/1 21/14/1 29/5/1
f 14/17/1 19/18/1 15/19/1
f 25/20/1 3/21/1 6/22/1
f 23/23/1 15/19/1 24/13/1
f 18/24/1 13/25/1 19/18/1
f 32/26/1 33/27/1 31/28/1
f 37/29/1 35/30/1 36/31/1
f 41/32/1 39/33/1 40/34/1
f 46/35/1 43/36/1 45/37/1
f 4/1/1 2/38/1 11/2/1
f 26/4/1 28/16/1 29/5/1
f 1/7/1 10/39/1 30/8/1
f 8/10/1 26/4/1 27/6/1
f 20/12/1 23/23/1 24/13/1
f 30/8/1 22/40/1 5/15/1
f 28/16/1 20/12/1 21/14/1
f 14/17/1 18/24/1 19/18/1
f 25/20/1 16/41/1 3/21/1
f 23/23/1 14/17/1 15/19/1
f 18/24/1 12/42/1 13/25/1
f 32/26/1 34/43/1 33/27/1
f 37/29/1 38/44/1 35/30/1
f 41/32/1 42/45/1 39/33/1
f 46/35/1 44/46/1 43/36/1
