# Blender v2.92.0 OBJ File: ''
# www.blender.org
mtllib barril.mtl
o Cilindro_Cilindro.001
v -0.000000 -1.000000 -0.900000
v -0.000000 2.000000 -0.900000
v 0.307818 -1.000000 -0.845723
v 0.307818 2.000000 -0.845723
v 0.578509 -1.000000 -0.689440
v 0.578509 2.000000 -0.689440
v 0.779423 -1.000000 -0.450000
v 0.779423 2.000000 -0.450000
v 0.886327 -1.000000 -0.156283
v 0.886327 2.000000 -0.156283
v 0.886327 -1.000000 0.156283
v 0.886327 2.000000 0.156283
v 0.779423 -1.000000 0.450000
v 0.779423 2.000000 0.450000
v 0.578509 -1.000000 0.689440
v 0.578509 2.000000 0.689440
v 0.307818 -1.000000 0.845723
v 0.307818 2.000000 0.845723
v 0.000000 -1.000000 0.900000
v 0.000000 2.000000 0.900000
v -0.307818 -1.000000 0.845723
v -0.307818 2.000000 0.845723
v -0.578509 -1.000000 0.689440
v -0.578509 2.000000 0.689440
v -0.779423 -1.000000 0.450000
v -0.779423 2.000000 0.450000
v -0.886327 -1.000000 0.156284
v -0.886327 2.000000 0.156284
v -0.886327 -1.000000 -0.156283
v -0.886327 2.000000 -0.156283
v -0.779423 -1.000000 -0.450000
v -0.779423 2.000000 -0.450000
v -0.578509 -1.000000 -0.689440
v -0.578509 2.000000 -0.689440
v -0.307819 -1.000000 -0.845723
v -0.307819 2.000000 -0.845723
v -0.000000 -0.878229 -0.900000
v 0.307818 -0.878229 -0.845723
v 0.578509 -0.878229 -0.689440
v 0.779423 -0.878229 -0.450000
v 0.886327 -0.878229 -0.156283
v 0.886327 -0.878229 0.156283
v 0.779423 -0.878229 0.450000
v 0.578509 -0.878229 0.689440
v 0.307818 -0.878229 0.845723
v 0.000000 -0.878229 0.900000
v -0.307818 -0.878229 0.845723
v -0.578509 -0.878229 0.689440
v -0.779423 -0.878229 0.450000
v -0.886327 -0.878229 0.156284
v -0.886327 -0.878229 -0.156283
v -0.779423 -0.878229 -0.450000
v -0.578509 -0.878229 -0.689440
v -0.307819 -0.878229 -0.845723
v 0.000000 -0.656318 -1.000000
v 0.342020 -0.656318 -0.939693
v 0.642788 -0.656318 -0.766044
v 0.866025 -0.656318 -0.500000
v 0.984808 -0.656318 -0.173648
v 0.984808 -0.656318 0.173648
v 0.866025 -0.656318 0.500000
v 0.642788 -0.656318 0.766044
v 0.342020 -0.656318 0.939693
v 0.000000 -0.656318 1.000000
v -0.342020 -0.656318 0.939693
v -0.642787 -0.656318 0.766045
v -0.866025 -0.656318 0.500000
v -0.984808 -0.656318 0.173649
v -0.984808 -0.656318 -0.173648
v -0.866026 -0.656318 -0.499999
v -0.642788 -0.656318 -0.766044
v -0.342021 -0.656318 -0.939692
v -0.000000 1.877831 -0.900000
v 0.307818 1.877831 -0.845723
v 0.578509 1.877831 -0.689440
v 0.779423 1.877831 -0.450000
v 0.886327 1.877831 -0.156283
v 0.886327 1.877831 0.156283
v 0.779423 1.877831 0.450000
v 0.578509 1.877831 0.689440
v 0.307818 1.877831 0.845723
v 0.000000 1.877831 0.900000
v -0.307818 1.877831 0.845723
v -0.578509 1.877831 0.689440
v -0.779423 1.877831 0.450000
v -0.886327 1.877831 0.156284
v -0.886327 1.877831 -0.156283
v -0.779423 1.877831 -0.450000
v -0.578509 1.877831 -0.689440
v -0.307819 1.877831 -0.845723
v 0.342020 1.659161 -0.939693
v 0.642788 1.659161 -0.766044
v 0.866025 1.659161 -0.500000
v 0.984808 1.659161 -0.173648
v 0.984808 1.659161 0.173648
v 0.866025 1.659161 0.500000
v 0.642788 1.659161 0.766044
v 0.342020 1.659161 0.939693
v 0.000000 1.659161 1.000000
v -0.342020 1.659161 0.939693
v -0.642787 1.659161 0.766045
v -0.866025 1.659161 0.500000
v -0.984808 1.659161 0.173649
v -0.984808 1.659161 -0.173648
v -0.866026 1.659161 -0.499999
v -0.642788 1.659161 -0.766044
v -0.342021 1.659161 -0.939692
v 0.000000 1.659161 -1.000000
v 0.342020 1.411447 -0.939693
v 0.642788 1.411447 -0.766044
v 0.866025 1.411447 -0.500000
v 0.984808 1.411447 -0.173648
v 0.984808 1.411447 0.173648
v 0.866025 1.411447 0.500000
v 0.642788 1.411447 0.766044
v 0.342020 1.411447 0.939693
v 0.000000 1.411447 1.000000
v -0.342020 1.411447 0.939693
v -0.642787 1.411447 0.766045
v -0.866025 1.411447 0.500000
v -0.984808 1.411447 0.173649
v -0.984808 1.411447 -0.173648
v -0.866026 1.411447 -0.499999
v -0.642788 1.411447 -0.766044
v -0.342021 1.411447 -0.939692
v 0.000000 1.411447 -1.000000
v 0.376222 0.583015 -1.033662
v 0.707066 0.583015 -0.842649
v 0.952628 0.583015 -0.550000
v 1.083289 0.583015 -0.191013
v 1.083288 0.583015 0.191013
v 0.952628 0.583015 0.550000
v 0.707066 0.583015 0.842649
v 0.376222 0.583015 1.033662
v 0.000000 0.583015 1.100000
v -0.376222 0.583015 1.033662
v -0.707066 0.583015 0.842649
v -0.952628 0.583015 0.550000
v -1.083289 0.583015 0.191013
v -1.083289 0.583015 -0.191012
v -0.952628 0.583015 -0.549999
v -0.707067 0.583015 -0.842648
v -0.376223 0.583015 -1.033662
v 0.000000 0.583015 -1.100000
v 0.376222 0.336451 -1.033662
v 0.707066 0.336451 -0.842649
v 0.952628 0.336451 -0.550000
v 1.083289 0.336451 -0.191013
v 1.083288 0.336451 0.191013
v 0.952628 0.336451 0.550000
v 0.707066 0.336451 0.842649
v 0.376222 0.336451 1.033662
v 0.000000 0.336451 1.100000
v -0.376222 0.336451 1.033662
v -0.707066 0.336451 0.842649
v -0.952628 0.336451 0.550000
v -1.083289 0.336451 0.191013
v -1.083289 0.336451 -0.191012
v -0.952628 0.336451 -0.549999
v -0.707067 0.336451 -0.842648
v -0.376223 0.336451 -1.033662
v 0.000000 0.336451 -1.100000
v 0.342020 -0.409465 -0.939693
v 0.642788 -0.409465 -0.766044
v 0.866025 -0.409465 -0.500000
v 0.984808 -0.409465 -0.173648
v 0.984808 -0.409465 0.173648
v 0.866025 -0.409465 0.500000
v 0.642788 -0.409465 0.766044
v 0.342020 -0.409465 0.939693
v 0.000000 -0.409465 1.000000
v -0.342020 -0.409465 0.939693
v -0.642787 -0.409465 0.766045
v -0.866025 -0.409465 0.500000
v -0.984808 -0.409465 0.173649
v -0.984808 -0.409465 -0.173648
v -0.866026 -0.409465 -0.499999
v -0.642788 -0.409465 -0.766044
v -0.342021 -0.409465 -0.939692
v 0.000000 -0.409465 -1.000000
vt 0.500765 0.904878
vt 0.452295 0.885466
vt 0.500765 0.885466
vt 0.452295 0.904878
vt 0.403825 0.885466
vt 0.403825 0.904878
vt 0.355355 0.885466
vt 0.355355 0.904878
vt 0.306885 0.885466
vt 0.306885 0.904878
vt 0.258415 0.885466
vt 0.258415 0.904878
vt 0.209946 0.885466
vt 0.209946 0.904878
vt 0.161476 0.885466
vt 0.161476 0.904878
vt 0.113006 0.885466
vt 0.113006 0.904878
vt 0.064536 0.885465
vt 0.936994 0.904878
vt 0.888524 0.885466
vt 0.936994 0.885466
vt 0.888524 0.904878
vt 0.840054 0.885466
vt 0.840054 0.904878
vt 0.791584 0.885466
vt 0.791584 0.904878
vt 0.743115 0.885466
vt 0.743115 0.904878
vt 0.694645 0.885466
vt 0.694645 0.904878
vt 0.646175 0.885466
vt 0.646175 0.904878
vt 0.597705 0.885466
vt 0.762015 0.325024
vt 0.585740 0.042732
vt 0.808437 0.038941
vt 0.597705 0.904878
vt 0.549235 0.885466
vt 0.549235 0.904878
vt 0.410670 0.039893
vt 0.452708 0.249470
vt 0.129635 0.143968
vt 0.549235 0.447535
vt 0.500765 0.428186
vt 0.549235 0.428186
vt 0.597705 0.447535
vt 0.597705 0.428186
vt 0.646175 0.447535
vt 0.646175 0.428186
vt 0.694645 0.447535
vt 0.694645 0.428186
vt 0.743114 0.447535
vt 0.743114 0.428186
vt 0.791584 0.447535
vt 0.791584 0.428186
vt 0.840054 0.447535
vt 0.840054 0.428186
vt 0.888524 0.447535
vt 0.888524 0.428186
vt 0.936993 0.447535
vt 0.936993 0.428186
vt 0.113006 0.447535
vt 0.064536 0.428185
vt 0.113006 0.428186
vt 0.161476 0.447535
vt 0.161476 0.428186
vt 0.209946 0.447535
vt 0.209946 0.428186
vt 0.258415 0.447535
vt 0.258415 0.428186
vt 0.306885 0.447535
vt 0.306885 0.428186
vt 0.355355 0.447535
vt 0.355355 0.428186
vt 0.403825 0.447535
vt 0.403825 0.428186
vt 0.452295 0.447535
vt 0.452295 0.428186
vt 0.500765 0.447535
vt 0.549235 0.482796
vt 0.597705 0.482796
vt 0.646175 0.482796
vt 0.694645 0.482796
vt 0.743114 0.482796
vt 0.791584 0.482796
vt 0.840054 0.482796
vt 0.888524 0.482796
vt 0.936993 0.482796
vt 0.113006 0.482796
vt 0.064536 0.447535
vt 0.161476 0.482796
vt 0.209946 0.482796
vt 0.258415 0.482796
vt 0.306885 0.482796
vt 0.355355 0.482796
vt 0.403825 0.482796
vt 0.452295 0.482796
vt 0.500765 0.482796
vt 0.500765 0.850720
vt 0.549235 0.850720
vt 0.597705 0.850720
vt 0.646175 0.850720
vt 0.694645 0.850720
vt 0.743114 0.850720
vt 0.791584 0.850720
vt 0.840054 0.850720
vt 0.888524 0.850720
vt 0.936994 0.850720
vt 0.064536 0.850719
vt 0.113006 0.850720
vt 0.161476 0.850720
vt 0.209946 0.850720
vt 0.258415 0.850720
vt 0.306885 0.850720
vt 0.355355 0.850720
vt 0.403825 0.850720
vt 0.452295 0.850720
vt 0.452295 0.811359
vt 0.500765 0.811359
vt 0.403825 0.811359
vt 0.355355 0.811359
vt 0.306885 0.811359
vt 0.258415 0.811359
vt 0.209946 0.811359
vt 0.161476 0.811359
vt 0.113006 0.811358
vt 0.064536 0.811358
vt 0.888524 0.811359
vt 0.936994 0.811359
vt 0.840054 0.811359
vt 0.791584 0.811359
vt 0.743114 0.811359
vt 0.694645 0.811359
vt 0.646175 0.811359
vt 0.597705 0.811359
vt 0.549235 0.811359
vt 0.500765 0.679723
vt 0.549235 0.679723
vt 0.597705 0.679723
vt 0.646175 0.679723
vt 0.694645 0.679723
vt 0.743114 0.679723
vt 0.791584 0.679723
vt 0.840054 0.679723
vt 0.888524 0.679723
vt 0.936994 0.679723
vt 0.064536 0.679722
vt 0.113006 0.679723
vt 0.161476 0.679723
vt 0.209946 0.679723
vt 0.258415 0.679723
vt 0.306885 0.679723
vt 0.355355 0.679723
vt 0.403825 0.679723
vt 0.452295 0.679723
vt 0.452295 0.640545
vt 0.500765 0.640545
vt 0.403825 0.640545
vt 0.355355 0.640545
vt 0.306885 0.640545
vt 0.258415 0.640545
vt 0.209946 0.640545
vt 0.161476 0.640545
vt 0.113006 0.640545
vt 0.064536 0.640544
vt 0.888524 0.640545
vt 0.936994 0.640545
vt 0.840054 0.640545
vt 0.791584 0.640545
vt 0.743114 0.640545
vt 0.694645 0.640545
vt 0.646175 0.640545
vt 0.597705 0.640545
vt 0.549235 0.640545
vt 0.500765 0.522021
vt 0.549235 0.522021
vt 0.597705 0.522021
vt 0.646175 0.522021
vt 0.694645 0.522021
vt 0.743114 0.522021
vt 0.791584 0.522021
vt 0.840054 0.522021
vt 0.888524 0.522021
vt 0.936993 0.522020
vt 0.064536 0.522020
vt 0.113006 0.522020
vt 0.161476 0.522020
vt 0.209946 0.522021
vt 0.258415 0.522021
vt 0.306885 0.522021
vt 0.355355 0.522021
vt 0.403825 0.522021
vt 0.452295 0.522021
vt 0.064536 0.482796
vt 0.064536 0.904877
vt 0.869657 0.136980
vt 0.870813 0.195047
vt 0.851323 0.249963
vt 0.813538 0.295103
vt 0.702969 0.336116
vt 0.643521 0.327041
vt 0.590841 0.298894
vt 0.551285 0.255070
vt 0.529622 0.200856
vt 0.528465 0.142788
vt 0.547955 0.087872
vt 0.637263 0.012811
vt 0.696310 0.001720
vt 0.755758 0.010794
vt 0.847994 0.082765
vt 0.450116 0.083321
vt 0.471584 0.137132
vt 0.472484 0.194835
vt 0.414641 0.294447
vt 0.362874 0.324342
vt 0.303651 0.335549
vt 0.244116 0.326716
vt 0.191449 0.298909
vt 0.152003 0.255481
vt 0.130535 0.201670
vt 0.149412 0.089333
vt 0.187479 0.044355
vt 0.239246 0.014460
vt 0.298468 0.003253
vt 0.358003 0.012086
vn 0.1736 0.0000 -0.9848
vn 0.5000 0.0000 -0.8660
vn 0.7660 0.0000 -0.6428
vn 0.9397 0.0000 -0.3420
vn 1.0000 0.0000 0.0000
vn 0.9397 0.0000 0.3420
vn 0.7660 0.0000 0.6428
vn 0.5000 0.0000 0.8660
vn 0.1736 0.0000 0.9848
vn -0.1736 0.0000 0.9848
vn -0.5000 0.0000 0.8660
vn -0.7660 0.0000 0.6428
vn -0.9397 0.0000 0.3420
vn -1.0000 0.0000 0.0000
vn -0.9397 0.0000 -0.3420
vn -0.7660 0.0000 -0.6428
vn 0.0000 1.0000 0.0000
vn -0.5000 0.0000 -0.8660
vn -0.1736 0.0000 -0.9848
vn 0.0000 -1.0000 0.0000
vn -0.1587 -0.4056 -0.9001
vn -0.4570 -0.4056 -0.7916
vn -0.7002 -0.4056 -0.5875
vn -0.8589 -0.4056 -0.3126
vn -0.9140 -0.4056 0.0000
vn -0.8589 -0.4056 0.3126
vn -0.7002 -0.4056 0.5875
vn -0.4570 -0.4056 0.7916
vn -0.1587 -0.4056 0.9001
vn 0.1587 -0.4056 0.9001
vn 0.4570 -0.4056 0.7916
vn 0.7002 -0.4056 0.5875
vn 0.8589 -0.4056 0.3126
vn 0.9140 -0.4056 0.0000
vn 0.8589 -0.4056 -0.3126
vn 0.7002 -0.4056 -0.5875
vn 0.4570 -0.4056 -0.7916
vn 0.1587 -0.4056 -0.9001
vn -0.1583 0.4106 -0.8979
vn -0.4559 0.4106 -0.7896
vn -0.6985 0.4106 -0.5861
vn -0.8568 0.4106 -0.3119
vn -0.9118 0.4106 0.0000
vn -0.8568 0.4106 0.3119
vn -0.6985 0.4106 0.5861
vn -0.4559 0.4106 0.7896
vn -0.1583 0.4106 0.8979
vn 0.1583 0.4106 0.8979
vn 0.4559 0.4106 0.7896
vn 0.6985 0.4106 0.5861
vn 0.8568 0.4106 0.3119
vn 0.9118 0.4106 0.0000
vn 0.8568 0.4106 -0.3119
vn 0.6985 0.4106 -0.5861
vn 0.4559 0.4106 -0.7896
vn 0.1583 0.4106 -0.8979
vn -0.1724 0.1180 -0.9779
vn -0.4965 0.1180 -0.8600
vn -0.7607 0.1180 -0.6383
vn -0.9331 0.1180 -0.3396
vn -0.9930 0.1180 0.0000
vn -0.9331 0.1180 0.3396
vn -0.7607 0.1180 0.6383
vn -0.4965 0.1180 0.8600
vn -0.1724 0.1180 0.9779
vn 0.1724 0.1180 0.9779
vn 0.4965 0.1180 0.8600
vn 0.7607 0.1180 0.6383
vn 0.9331 0.1180 0.3396
vn 0.9930 0.1180 0.0000
vn 0.9331 0.1180 -0.3396
vn 0.7607 0.1180 -0.6383
vn 0.4965 0.1180 -0.8600
vn 0.1724 0.1180 -0.9779
vn -0.1722 -0.1309 -0.9763
vn -0.4957 -0.1309 -0.8586
vn -0.7595 -0.1309 -0.6373
vn -0.9316 -0.1309 -0.3391
vn -0.9914 -0.1309 0.0000
vn -0.9316 -0.1309 0.3391
vn -0.7595 -0.1309 0.6373
vn -0.4957 -0.1309 0.8586
vn -0.1722 -0.1309 0.9763
vn 0.1722 -0.1309 0.9763
vn 0.4957 -0.1309 0.8586
vn 0.7595 -0.1309 0.6373
vn 0.9316 -0.1309 0.3391
vn 0.9914 -0.1309 0.0000
vn 0.9316 -0.1309 -0.3391
vn 0.7595 -0.1309 -0.6373
vn 0.4957 -0.1309 -0.8586
vn 0.1722 -0.1309 -0.9763
usemtl Meu_Material_:)
s off
f 2/1/1 74/2/1 73/3/1
f 4/4/2 75/5/2 74/2/2
f 6/6/3 76/7/3 75/5/3
f 8/8/4 77/9/4 76/7/4
f 10/10/5 78/11/5 77/9/5
f 12/12/6 79/13/6 78/11/6
f 14/14/7 80/15/7 79/13/7
f 16/16/8 81/17/8 80/15/8
f 18/18/9 82/19/9 81/17/9
f 20/20/10 83/21/10 82/22/10
f 22/23/11 84/24/11 83/21/11
f 24/25/12 85/26/12 84/24/12
f 26/27/13 86/28/13 85/26/13
f 28/29/14 87/30/14 86/28/14
f 30/31/15 88/32/15 87/30/15
f 32/33/16 89/34/16 88/32/16
f 34/35/17 18/36/17 10/37/17
f 34/38/18 90/39/18 89/34/18
f 36/40/19 73/3/19 90/39/19
f 35/41/20 7/42/20 23/43/20
f 54/44/19 1/45/19 35/46/19
f 53/47/18 35/46/18 33/48/18
f 52/49/16 33/48/16 31/50/16
f 51/51/15 31/50/15 29/52/15
f 50/53/14 29/52/14 27/54/14
f 49/55/13 27/54/13 25/56/13
f 48/57/12 25/56/12 23/58/12
f 47/59/11 23/58/11 21/60/11
f 46/61/10 21/60/10 19/62/10
f 45/63/9 19/64/9 17/65/9
f 44/66/8 17/65/8 15/67/8
f 43/68/7 15/67/7 13/69/7
f 42/70/6 13/69/6 11/71/6
f 41/72/5 11/71/5 9/73/5
f 40/74/4 9/73/4 7/75/4
f 39/76/3 7/75/3 5/77/3
f 38/78/2 5/77/2 3/79/2
f 37/80/1 3/79/1 1/45/1
f 72/81/21 37/80/21 54/44/21
f 71/82/22 54/44/22 53/47/22
f 70/83/23 53/47/23 52/49/23
f 69/84/24 52/49/24 51/51/24
f 68/85/25 51/51/25 50/53/25
f 67/86/26 50/53/26 49/55/26
f 66/87/27 49/55/27 48/57/27
f 65/88/28 48/57/28 47/59/28
f 64/89/29 47/59/29 46/61/29
f 63/90/30 46/91/30 45/63/30
f 62/92/31 45/63/31 44/66/31
f 61/93/32 44/66/32 43/68/32
f 60/94/33 43/68/33 42/70/33
f 59/95/34 42/70/34 41/72/34
f 58/96/35 41/72/35 40/74/35
f 57/97/36 40/74/36 39/76/36
f 56/98/37 39/76/37 38/78/37
f 55/99/38 38/78/38 37/80/38
f 90/39/39 108/100/39 107/101/39
f 106/102/40 90/39/40 107/101/40
f 88/32/41 106/102/41 105/103/41
f 87/30/42 105/103/42 104/104/42
f 103/105/43 87/30/43 104/104/43
f 102/106/44 86/28/44 103/105/44
f 84/24/45 102/106/45 101/107/45
f 83/21/46 101/107/46 100/108/46
f 82/22/47 100/108/47 99/109/47
f 81/17/48 99/110/48 98/111/48
f 97/112/49 81/17/49 98/111/49
f 79/13/50 97/112/50 96/113/50
f 78/11/51 96/113/51 95/114/51
f 77/9/52 95/114/52 94/115/52
f 76/7/53 94/115/53 93/116/53
f 75/5/54 93/116/54 92/117/54
f 74/2/55 92/117/55 91/118/55
f 73/3/56 91/118/56 108/100/56
f 108/100/1 109/119/1 126/120/1
f 91/118/2 110/121/2 109/119/2
f 92/117/3 111/122/3 110/121/3
f 93/116/4 112/123/4 111/122/4
f 94/115/5 113/124/5 112/123/5
f 95/114/6 114/125/6 113/124/6
f 96/113/7 115/126/7 114/125/7
f 97/112/8 116/127/8 115/126/8
f 98/111/9 117/128/9 116/127/9
f 99/109/10 118/129/10 117/130/10
f 100/108/11 119/131/11 118/129/11
f 101/107/12 120/132/12 119/131/12
f 102/106/13 121/133/13 120/132/13
f 103/105/14 122/134/14 121/133/14
f 104/104/15 123/135/15 122/134/15
f 105/103/16 124/136/16 123/135/16
f 106/102/18 125/137/18 124/136/18
f 107/101/19 126/120/19 125/137/19
f 125/137/57 144/138/57 143/139/57
f 124/136/58 143/139/58 142/140/58
f 123/135/59 142/140/59 141/141/59
f 122/134/60 141/141/60 140/142/60
f 121/133/61 140/142/61 139/143/61
f 120/132/62 139/143/62 138/144/62
f 119/131/63 138/144/63 137/145/63
f 118/129/64 137/145/64 136/146/64
f 117/130/65 136/146/65 135/147/65
f 116/127/66 135/148/66 134/149/66
f 115/126/67 134/149/67 133/150/67
f 114/125/68 133/150/68 132/151/68
f 131/152/69 114/125/69 132/151/69
f 112/123/70 131/152/70 130/153/70
f 111/122/71 130/153/71 129/154/71
f 110/121/72 129/154/72 128/155/72
f 109/119/73 128/155/73 127/156/73
f 126/120/74 127/156/74 144/138/74
f 144/138/1 145/157/1 162/158/1
f 127/156/2 146/159/2 145/157/2
f 128/155/3 147/160/3 146/159/3
f 129/154/4 148/161/4 147/160/4
f 130/153/5 149/162/5 148/161/5
f 131/152/6 150/163/6 149/162/6
f 132/151/7 151/164/7 150/163/7
f 133/150/8 152/165/8 151/164/8
f 134/149/9 153/166/9 152/165/9
f 135/147/10 154/167/10 153/168/10
f 136/146/11 155/169/11 154/167/11
f 137/145/12 156/170/12 155/169/12
f 138/144/13 157/171/13 156/170/13
f 139/143/14 158/172/14 157/171/14
f 140/142/15 159/173/15 158/172/15
f 141/141/16 160/174/16 159/173/16
f 142/140/18 161/175/18 160/174/18
f 143/139/19 162/158/19 161/175/19
f 161/175/75 180/176/75 179/177/75
f 160/174/76 179/177/76 178/178/76
f 177/179/77 160/174/77 178/178/77
f 158/172/78 177/179/78 176/180/78
f 157/171/79 176/180/79 175/181/79
f 156/170/80 175/181/80 174/182/80
f 155/169/81 174/182/81 173/183/81
f 154/167/82 173/183/82 172/184/82
f 153/168/83 172/184/83 171/185/83
f 152/165/84 171/186/84 170/187/84
f 151/164/85 170/187/85 169/188/85
f 150/163/86 169/188/86 168/189/86
f 149/162/87 168/189/87 167/190/87
f 148/161/88 167/190/88 166/191/88
f 147/160/89 166/191/89 165/192/89
f 146/159/90 165/192/90 164/193/90
f 145/157/91 164/193/91 163/194/91
f 162/158/92 163/194/92 180/176/92
f 180/176/1 56/98/1 55/99/1
f 163/194/2 57/97/2 56/98/2
f 164/193/3 58/96/3 57/97/3
f 165/192/4 59/95/4 58/96/4
f 166/191/5 60/94/5 59/95/5
f 167/190/6 61/93/6 60/94/6
f 168/189/7 62/92/7 61/93/7
f 169/188/8 63/90/8 62/92/8
f 170/187/9 64/195/9 63/90/9
f 171/185/10 65/88/10 64/89/10
f 172/184/11 66/87/11 65/88/11
f 173/183/12 67/86/12 66/87/12
f 174/182/13 68/85/13 67/86/13
f 175/181/14 69/84/14 68/85/14
f 176/180/15 70/83/15 69/84/15
f 177/179/16 71/82/16 70/83/16
f 178/178/18 72/81/18 71/82/18
f 179/177/19 55/99/19 72/81/19
f 2/1/1 4/4/1 74/2/1
f 4/4/2 6/6/2 75/5/2
f 6/6/3 8/8/3 76/7/3
f 8/8/4 10/10/4 77/9/4
f 10/10/5 12/12/5 78/11/5
f 12/12/6 14/14/6 79/13/6
f 14/14/7 16/16/7 80/15/7
f 16/16/8 18/18/8 81/17/8
f 18/18/9 20/196/9 82/19/9
f 20/20/10 22/23/10 83/21/10
f 22/23/11 24/25/11 84/24/11
f 24/25/12 26/27/12 85/26/12
f 26/27/13 28/29/13 86/28/13
f 28/29/14 30/31/14 87/30/14
f 30/31/15 32/33/15 88/32/15
f 32/33/16 34/38/16 89/34/16
f 6/197/17 4/198/17 2/199/17
f 2/199/17 36/200/17 34/35/17
f 34/35/17 32/201/17 30/202/17
f 30/202/17 28/203/17 26/204/17
f 26/204/17 24/205/17 22/206/17
f 22/206/17 20/207/17 26/204/17
f 20/207/17 18/36/17 26/204/17
f 18/36/17 16/208/17 14/209/17
f 14/209/17 12/210/17 10/37/17
f 10/37/17 8/211/17 6/197/17
f 6/197/17 2/199/17 10/37/17
f 2/199/17 34/35/17 10/37/17
f 34/35/17 30/202/17 26/204/17
f 18/36/17 14/209/17 10/37/17
f 34/35/17 26/204/17 18/36/17
f 34/38/18 36/40/18 90/39/18
f 36/40/19 2/1/19 73/3/19
f 35/41/20 1/212/20 3/213/20
f 3/213/20 5/214/20 7/42/20
f 7/42/20 9/215/20 11/216/20
f 11/216/20 13/217/20 15/218/20
f 15/218/20 17/219/20 19/220/20
f 19/220/20 21/221/20 23/43/20
f 23/43/20 25/222/20 27/223/20
f 27/223/20 29/224/20 23/43/20
f 29/224/20 31/225/20 23/43/20
f 31/225/20 33/226/20 35/41/20
f 35/41/20 3/213/20 7/42/20
f 7/42/20 11/216/20 15/218/20
f 15/218/20 19/220/20 7/42/20
f 19/220/20 23/43/20 7/42/20
f 31/225/20 35/41/20 23/43/20
f 54/44/19 37/80/19 1/45/19
f 53/47/18 54/44/18 35/46/18
f 52/49/16 53/47/16 33/48/16
f 51/51/15 52/49/15 31/50/15
f 50/53/14 51/51/14 29/52/14
f 49/55/13 50/53/13 27/54/13
f 48/57/12 49/55/12 25/56/12
f 47/59/11 48/57/11 23/58/11
f 46/61/10 47/59/10 21/60/10
f 45/63/9 46/91/9 19/64/9
f 44/66/8 45/63/8 17/65/8
f 43/68/7 44/66/7 15/67/7
f 42/70/6 43/68/6 13/69/6
f 41/72/5 42/70/5 11/71/5
f 40/74/4 41/72/4 9/73/4
f 39/76/3 40/74/3 7/75/3
f 38/78/2 39/76/2 5/77/2
f 37/80/1 38/78/1 3/79/1
f 72/81/21 55/99/21 37/80/21
f 71/82/22 72/81/22 54/44/22
f 70/83/23 71/82/23 53/47/23
f 69/84/24 70/83/24 52/49/24
f 68/85/25 69/84/25 51/51/25
f 67/86/26 68/85/26 50/53/26
f 66/87/27 67/86/27 49/55/27
f 65/88/28 66/87/28 48/57/28
f 64/89/29 65/88/29 47/59/29
f 63/90/30 64/195/30 46/91/30
f 62/92/31 63/90/31 45/63/31
f 61/93/32 62/92/32 44/66/32
f 60/94/33 61/93/33 43/68/33
f 59/95/34 60/94/34 42/70/34
f 58/96/35 59/95/35 41/72/35
f 57/97/36 58/96/36 40/74/36
f 56/98/37 57/97/37 39/76/37
f 55/99/38 56/98/38 38/78/38
f 90/39/39 73/3/39 108/100/39
f 106/102/40 89/34/40 90/39/40
f 88/32/41 89/34/41 106/102/41
f 87/30/42 88/32/42 105/103/42
f 103/105/43 86/28/43 87/30/43
f 102/106/44 85/26/44 86/28/44
f 84/24/45 85/26/45 102/106/45
f 83/21/46 84/24/46 101/107/46
f 82/22/47 83/21/47 100/108/47
f 81/17/48 82/19/48 99/110/48
f 97/112/49 80/15/49 81/17/49
f 79/13/50 80/15/50 97/112/50
f 78/11/51 79/13/51 96/113/51
f 77/9/52 78/11/52 95/114/52
f 76/7/53 77/9/53 94/115/53
f 75/5/54 76/7/54 93/116/54
f 74/2/55 75/5/55 92/117/55
f 73/3/56 74/2/56 91/118/56
f 108/100/1 91/118/1 109/119/1
f 91/118/2 92/117/2 110/121/2
f 92/117/3 93/116/3 111/122/3
f 93/116/4 94/115/4 112/123/4
f 94/115/5 95/114/5 113/124/5
f 95/114/6 96/113/6 114/125/6
f 96/113/7 97/112/7 115/126/7
f 97/112/8 98/111/8 116/127/8
f 98/111/9 99/110/9 117/128/9
f 99/109/10 100/108/10 118/129/10
f 100/108/11 101/107/11 119/131/11
f 101/107/12 102/106/12 120/132/12
f 102/106/13 103/105/13 121/133/13
f 103/105/14 104/104/14 122/134/14
f 104/104/15 105/103/15 123/135/15
f 105/103/16 106/102/16 124/136/16
f 106/102/18 107/101/18 125/137/18
f 107/101/19 108/100/19 126/120/19
f 125/137/57 126/120/57 144/138/57
f 124/136/58 125/137/58 143/139/58
f 123/135/59 124/136/59 142/140/59
f 122/134/60 123/135/60 141/141/60
f 121/133/61 122/134/61 140/142/61
f 120/132/62 121/133/62 139/143/62
f 119/131/63 120/132/63 138/144/63
f 118/129/64 119/131/64 137/145/64
f 117/130/65 118/129/65 136/146/65
f 116/127/66 117/128/66 135/148/66
f 115/126/67 116/127/67 134/149/67
f 114/125/68 115/126/68 133/150/68
f 131/152/69 113/124/69 114/125/69
f 112/123/70 113/124/70 131/152/70
f 111/122/71 112/123/71 130/153/71
f 110/121/72 111/122/72 129/154/72
f 109/119/73 110/121/73 128/155/73
f 126/120/74 109/119/74 127/156/74
f 144/138/1 127/156/1 145/157/1
f 127/156/2 128/155/2 146/159/2
f 128/155/3 129/154/3 147/160/3
f 129/154/4 130/153/4 148/161/4
f 130/153/5 131/152/5 149/162/5
f 131/152/6 132/151/6 150/163/6
f 132/151/7 133/150/7 151/164/7
f 133/150/8 134/149/8 152/165/8
f 134/149/9 135/148/9 153/166/9
f 135/147/10 136/146/10 154/167/10
f 136/146/11 137/145/11 155/169/11
f 137/145/12 138/144/12 156/170/12
f 138/144/13 139/143/13 157/171/13
f 139/143/14 140/142/14 158/172/14
f 140/142/15 141/141/15 159/173/15
f 141/141/16 142/140/16 160/174/16
f 142/140/18 143/139/18 161/175/18
f 143/139/19 144/138/19 162/158/19
f 161/175/75 162/158/75 180/176/75
f 160/174/76 161/175/76 179/177/76
f 177/179/77 159/173/77 160/174/77
f 158/172/78 159/173/78 177/179/78
f 157/171/79 158/172/79 176/180/79
f 156/170/80 157/171/80 175/181/80
f 155/169/81 156/170/81 174/182/81
f 154/167/82 155/169/82 173/183/82
f 153/168/83 154/167/83 172/184/83
f 152/165/84 153/166/84 171/186/84
f 151/164/85 152/165/85 170/187/85
f 150/163/86 151/164/86 169/188/86
f 149/162/87 150/163/87 168/189/87
f 148/161/88 149/162/88 167/190/88
f 147/160/89 148/161/89 166/191/89
f 146/159/90 147/160/90 165/192/90
f 145/157/91 146/159/91 164/193/91
f 162/158/92 145/157/92 163/194/92
f 180/176/1 163/194/1 56/98/1
f 163/194/2 164/193/2 57/97/2
f 164/193/3 165/192/3 58/96/3
f 165/192/4 166/191/4 59/95/4
f 166/191/5 167/190/5 60/94/5
f 167/190/6 168/189/6 61/93/6
f 168/189/7 169/188/7 62/92/7
f 169/188/8 170/187/8 63/90/8
f 170/187/9 171/186/9 64/195/9
f 171/185/10 172/184/10 65/88/10
f 172/184/11 173/183/11 66/87/11
f 173/183/12 174/182/12 67/86/12
f 174/182/13 175/181/13 68/85/13
f 175/181/14 176/180/14 69/84/14
f 176/180/15 177/179/15 70/83/15
f 177/179/16 178/178/16 71/82/16
f 178/178/18 179/177/18 72/81/18
f 179/177/19 180/176/19 55/99/19
