# Blender v2.92.0 OBJ File: ''
# www.blender.org
o Cylinder
v -4.449131 1.166711 3.662344
v -4.172037 1.546780 3.745264
v -4.147499 1.166711 3.692053
v -3.894399 1.546780 3.829484
v -3.857458 1.166711 3.780036
v -3.638527 1.546780 3.966251
v -3.590154 1.166711 3.922913
v -3.414253 1.546780 4.150308
v -3.355860 1.166711 4.115193
v -3.230196 1.546780 4.374582
v -3.163579 1.166711 4.349486
v -3.093429 1.546780 4.630454
v -3.020704 1.166711 4.616790
v -3.009209 1.546780 4.908092
v -2.932720 1.166711 4.906832
v -2.980771 1.546780 5.196826
v -2.903012 1.166711 5.208465
v -4.460771 1.546780 6.676826
v -4.750766 1.166711 6.724876
v -4.449132 1.166711 6.754585
v -4.749505 1.546780 6.648388
v -5.040808 1.166711 6.636893
v -5.027143 1.546780 6.564167
v -5.308112 1.166711 6.494016
v -5.283016 1.546780 6.427401
v -5.542405 1.166711 6.301736
v -5.507290 1.546780 6.243343
v -5.734684 1.166711 6.067442
v -5.691347 1.546780 6.019069
v -5.877562 1.166711 5.800138
v -5.828113 1.546780 5.763196
v -5.965544 1.166711 5.510096
v -5.912333 1.546780 5.485558
v -5.995253 1.166711 5.208463
v -5.940771 1.546780 5.196825
v -5.965544 1.166711 4.906830
v -5.912333 1.546780 4.908091
v -5.877561 1.166711 4.616788
v -5.828112 1.546780 4.630453
v -5.734683 1.166711 4.349485
v -5.691345 1.546780 4.374581
v -5.542403 1.166711 4.115191
v -5.283012 1.546780 3.966250
v -5.308109 1.166711 3.922912
v -5.027140 1.546780 3.829483
v -5.040805 1.166711 3.780035
v -4.460771 1.546780 5.196825
v -4.749502 1.546780 3.745263
v -4.750762 1.166711 3.692052
v -4.460771 1.546780 3.716826
v -4.449131 1.166711 5.208464
v -3.009209 0.380522 4.908092
v -2.980771 0.380522 5.196826
v -4.460771 0.380522 5.196825
v -5.828113 0.380522 5.763196
v -5.912333 0.380522 5.485558
v -5.507288 0.380522 4.150307
v -5.283012 0.380522 3.966250
v -4.449131 0.760591 5.208464
v -4.460771 0.380522 6.676826
v -4.449132 0.760591 6.754585
v -2.903012 0.760591 5.208465
v -4.750762 0.760591 3.692052
v -4.460771 0.380522 3.716826
v -4.749502 0.380522 3.745263
v -4.449131 0.760591 3.662344
v -5.040805 0.760591 3.780035
v -5.027140 0.380522 3.829483
v -5.308109 0.760591 3.922912
v -5.542403 0.760591 4.115191
v -5.691345 0.380522 4.374581
v -5.734683 0.760591 4.349485
v -5.828112 0.380522 4.630453
v -5.877561 0.760591 4.616788
v -5.912333 0.380522 4.908091
v -5.965544 0.760591 4.906830
v -5.940771 0.380522 5.196825
v -5.995253 0.760591 5.208463
v -5.965544 0.760591 5.510096
v -5.877562 0.760591 5.800138
v -5.691347 0.380522 6.019069
v -5.734684 0.760591 6.067442
v -5.507290 0.380522 6.243343
v -5.542405 0.760591 6.301736
v -5.283016 0.380522 6.427401
v -5.308112 0.760591 6.494016
v -5.027143 0.380522 6.564167
v -5.040808 0.760591 6.636893
v -4.749505 0.380522 6.648388
v -4.750766 0.760591 6.724876
v -2.932720 0.760591 4.906832
v -3.020704 0.760591 4.616790
v -3.093429 0.380522 4.630454
v -3.163579 0.760591 4.349486
v -3.230196 0.380522 4.374582
v -3.355860 0.760591 4.115193
v -3.414253 0.380522 4.150308
v -3.590154 0.760591 3.922913
v -3.638527 0.380522 3.966251
v -3.857458 0.760591 3.780036
v -3.894399 0.380522 3.829484
v -4.147499 0.760591 3.692053
v -4.172037 0.380522 3.745264
v -5.507288 1.546780 4.150307
vt 0.402974 0.315239
vt 0.453739 0.371911
vt 0.458234 0.315239
vt 0.504604 0.371911
vt 0.511371 0.315239
vt 0.551481 0.371911
vt 0.560343 0.315239
vt 0.592569 0.371911
vt 0.603267 0.315239
vt 0.503165 0.315239
vt 0.455644 0.371911
vt 0.460241 0.315239
vt 0.408767 0.371911
vt 0.411270 0.315239
vt 0.357902 0.371911
vt 0.358133 0.315239
vt 0.305004 0.371911
vt 0.302872 0.315239
vt 0.400841 0.371911
vt 0.347713 0.315239
vt 0.402973 0.315239
vt 0.347944 0.371911
vt 0.294576 0.315239
vt 0.297079 0.371911
vt 0.245604 0.315239
vt 0.250202 0.371911
vt 0.202680 0.315239
vt 0.113277 0.371911
vt 0.145503 0.315239
vt 0.102579 0.315239
vt 0.154365 0.371911
vt 0.194474 0.315239
vt 0.201242 0.371911
vt 0.247612 0.315239
vt 0.252107 0.371911
vt 0.302872 0.315239
vt 0.305005 0.371911
vt 0.358133 0.315239
vt 0.357902 0.371911
vt 0.411270 0.315239
vt 0.408767 0.371911
vt 0.460242 0.315239
vt 0.455644 0.371911
vt 0.503165 0.315239
vt 0.202681 0.315239
vt 0.250202 0.371911
vt 0.245605 0.315239
vt 0.297079 0.371911
vt 0.294576 0.315239
vt 0.297079 0.042078
vt 0.347944 0.029520
vt 0.400841 0.245961
vt 0.347944 0.371911
vt 0.347713 0.315239
vt 0.400841 0.371911
vt 0.585842 0.903509
vt 0.080938 0.797143
vt 0.612580 0.797143
vt 0.134908 0.289014
vt 0.129698 0.245961
vt 0.666775 0.289013
vt 0.671985 0.245961
vt 0.400841 0.245961
vt 0.550655 0.797143
vt 0.045751 0.903509
vt 0.019013 0.797143
vt 0.150337 0.161510
vt 0.134908 0.202908
vt 0.592569 0.402006
vt 0.551481 0.429450
vt 0.209114 0.402006
vt 0.250202 0.429450
vt 0.550655 0.683487
vt 0.045751 0.577120
vt 0.554657 0.577120
vt 0.019013 0.683487
vt 0.585842 0.577120
vt 0.080938 0.683487
vt 0.076936 0.577120
vt 0.612580 0.683487
vt 0.347713 0.254683
vt 0.400841 0.198011
vt 0.347944 0.198011
vt 0.402974 0.254683
vt 0.294576 0.254683
vt 0.297079 0.198011
vt 0.245605 0.254683
vt 0.250202 0.198011
vt 0.202681 0.254683
vt 0.209114 0.198011
vt 0.455644 0.198011
vt 0.503165 0.254683
vt 0.496732 0.198011
vt 0.460242 0.254683
vt 0.408767 0.198011
vt 0.411270 0.254683
vt 0.357902 0.198011
vt 0.358133 0.254683
vt 0.305005 0.198011
vt 0.302872 0.254683
vt 0.252107 0.198011
vt 0.247612 0.254683
vt 0.201242 0.198011
vt 0.194474 0.254683
vt 0.154365 0.198011
vt 0.145503 0.254683
vt 0.113277 0.198011
vt 0.102579 0.254683
vt 0.250202 0.198011
vt 0.202680 0.254683
vt 0.209114 0.198011
vt 0.245604 0.254683
vt 0.297079 0.198011
vt 0.294576 0.254683
vt 0.347944 0.198011
vt 0.347713 0.254683
vt 0.400841 0.198011
vt 0.402973 0.254683
vt 0.358133 0.254683
vt 0.305004 0.198011
vt 0.357902 0.198011
vt 0.302872 0.254683
vt 0.411270 0.254683
vt 0.408767 0.198011
vt 0.460241 0.254683
vt 0.455644 0.198011
vt 0.503165 0.254683
vt 0.496732 0.198011
vt 0.560343 0.254683
vt 0.592569 0.198011
vt 0.551481 0.198011
vt 0.603267 0.254683
vt 0.511371 0.254683
vt 0.504604 0.198011
vt 0.458234 0.254683
vt 0.453739 0.198011
vt 0.496732 0.371911
vt 0.209114 0.371911
vt 0.496732 0.371911
vt 0.209114 0.371911
vt 0.400841 0.025280
vt 0.134908 0.202908
vt 0.150337 0.161510
vt 0.175393 0.123357
vt 0.209114 0.089916
vt 0.250202 0.062471
vt 0.076936 0.903509
vt 0.400841 0.466642
vt 0.347944 0.462401
vt 0.297079 0.449843
vt 0.250202 0.429450
vt 0.209114 0.402006
vt 0.175394 0.368564
vt 0.150337 0.330412
vt 0.400841 0.466642
vt 0.453739 0.462401
vt 0.504604 0.449843
vt 0.551481 0.429450
vt 0.592569 0.402006
vt 0.626289 0.368564
vt 0.651345 0.330411
vt 0.554657 0.903509
vt 0.129698 0.245961
vt 0.400841 0.025280
vt 0.347944 0.029520
vt 0.297079 0.042078
vt 0.250202 0.062471
vt 0.209114 0.089916
vt 0.175393 0.123357
vt 0.504604 0.449843
vt 0.453739 0.462401
vt 0.671985 0.245961
vt 0.666775 0.289013
vt 0.651345 0.330411
vt 0.626289 0.368564
vt 0.297079 0.449843
vt 0.347944 0.462401
vt 0.134908 0.289014
vt 0.150337 0.330412
vt 0.175394 0.368564
vn 0.0009 0.0708 -0.9975
vn 0.1302 0.7380 -0.6622
vn 0.1956 0.0740 -0.9779
vn 0.2557 0.7404 -0.6216
vn 0.3826 0.0776 -0.9206
vn 0.3703 0.7431 -0.5574
vn 0.5548 0.0816 -0.8280
vn 0.4697 0.7459 -0.4723
vn 0.7054 0.0856 -0.7036
vn 0.5503 0.7486 -0.3698
vn 0.8288 0.0896 -0.5523
vn 0.6092 0.7512 -0.2541
vn 0.9203 0.0935 -0.3799
vn 0.6444 0.7536 -0.1297
vn 0.9764 0.0970 -0.1931
vn 0.5417 0.6324 0.5537
vn 0.7533 0.0843 0.6523
vn 0.5537 0.6324 0.5417
vn -0.1931 0.0970 0.9764
vn 0.6523 0.0843 0.7533
vn -0.1297 0.7536 0.6444
vn -0.3799 0.0935 0.9203
vn -0.2541 0.7512 0.6092
vn -0.5523 0.0896 0.8288
vn -0.3698 0.7486 0.5503
vn -0.7036 0.0856 0.7054
vn -0.4723 0.7459 0.4697
vn -0.8280 0.0816 0.5548
vn -0.5574 0.7431 0.3703
vn -0.9206 0.0777 0.3826
vn -0.6216 0.7404 0.2557
vn -0.9779 0.0740 0.1956
vn -0.6622 0.7380 0.1302
vn -0.9975 0.0708 0.0009
vn -0.6772 0.7358 -0.0013
vn -0.9786 0.0682 -0.1939
vn -0.6659 0.7340 -0.1335
vn -0.9220 0.0663 -0.3814
vn -0.6285 0.7327 -0.2611
vn -0.8298 0.0651 -0.5542
vn -0.5664 0.7318 -0.3789
vn -0.7056 0.0647 -0.7056
vn -0.3789 0.7318 -0.5664
vn -0.5542 0.0651 -0.8299
vn -0.2611 0.7327 -0.6285
vn -0.3814 0.0663 -0.9220
vn 0.2917 0.9109 0.2917
vn -0.1335 0.7340 -0.6659
vn -0.1939 0.0682 -0.9786
vn -0.0013 0.7358 -0.6772
vn 0.7069 0.0219 0.7069
vn 0.6444 -0.7536 -0.1297
vn 0.5417 -0.6324 0.5537
vn 0.2917 -0.9109 0.2917
vn -0.6216 -0.7404 0.2557
vn -0.6622 -0.7380 0.1302
vn -0.4821 -0.7316 -0.4821
vn -0.3789 -0.7318 -0.5664
vn 0.7069 -0.0219 0.7069
vn 0.5537 -0.6324 0.5417
vn 0.6523 -0.0843 0.7533
vn 0.7533 -0.0843 0.6523
vn -0.1939 -0.0682 -0.9786
vn -0.0013 -0.7358 -0.6772
vn -0.1335 -0.7340 -0.6659
vn 0.0009 -0.0708 -0.9975
vn -0.3814 -0.0663 -0.9220
vn -0.2611 -0.7327 -0.6285
vn -0.5542 -0.0651 -0.8299
vn -0.7056 -0.0647 -0.7056
vn -0.5664 -0.7318 -0.3789
vn -0.8298 -0.0651 -0.5542
vn -0.6285 -0.7327 -0.2611
vn -0.9220 -0.0663 -0.3814
vn -0.6659 -0.7340 -0.1335
vn -0.9786 -0.0682 -0.1939
vn -0.6772 -0.7358 -0.0013
vn -0.9975 -0.0708 0.0009
vn -0.9779 -0.0740 0.1956
vn -0.9206 -0.0777 0.3826
vn -0.5574 -0.7431 0.3703
vn -0.8280 -0.0816 0.5548
vn -0.4723 -0.7459 0.4697
vn -0.7036 -0.0856 0.7054
vn -0.3698 -0.7486 0.5503
vn -0.5523 -0.0896 0.8288
vn -0.2541 -0.7512 0.6092
vn -0.3799 -0.0935 0.9203
vn -0.1297 -0.7536 0.6444
vn -0.1931 -0.0970 0.9764
vn 0.9764 -0.0970 -0.1931
vn 0.9203 -0.0935 -0.3799
vn 0.6092 -0.7512 -0.2541
vn 0.8288 -0.0896 -0.5523
vn 0.5503 -0.7486 -0.3698
vn 0.7054 -0.0856 -0.7036
vn 0.4697 -0.7459 -0.4723
vn 0.5548 -0.0816 -0.8280
vn 0.3703 -0.7431 -0.5574
vn 0.3826 -0.0776 -0.9206
vn 0.2557 -0.7404 -0.6216
vn 0.1956 -0.0740 -0.9779
vn 0.1302 -0.7380 -0.6622
vn -0.4821 0.7316 -0.4821
s 1
f 1/1/1 2/2/2 3/3/3
f 3/3/3 4/4/4 5/5/5
f 5/5/5 6/6/6 7/7/7
f 7/7/7 8/8/8 9/9/9
f 9/10/9 10/11/10 11/12/11
f 11/12/11 12/13/12 13/14/13
f 13/14/13 14/15/14 15/16/15
f 15/16/15 16/17/16 17/18/17
f 18/19/18 19/20/19 20/21/20
f 21/22/21 22/23/22 19/20/19
f 23/24/23 24/25/24 22/23/22
f 25/26/25 26/27/26 24/25/24
f 27/28/27 28/29/28 26/30/26
f 29/31/29 30/32/30 28/29/28
f 31/33/31 32/34/32 30/32/30
f 33/35/33 34/36/34 32/34/32
f 35/37/35 36/38/36 34/36/34
f 37/39/37 38/40/38 36/38/36
f 39/41/39 40/42/40 38/40/38
f 41/43/41 42/44/42 40/42/40
f 42/45/42 43/46/43 44/47/44
f 44/47/44 45/48/45 46/49/46
f 23/50/23 21/51/21 47/52/47
f 46/49/46 48/53/48 49/54/49
f 49/54/49 50/55/50 1/1/1
f 16/56/16 51/57/51 17/58/17
f 37/59/37 35/60/35 47/52/47
f 52/61/52 53/62/53 54/63/54
f 51/64/51 18/65/18 20/66/20
f 55/67/55 56/68/56 54/63/54
f 8/69/8 6/70/6 47/52/47
f 57/71/57 58/72/58 54/63/54
f 59/73/59 60/74/60 54/75/54
f 51/64/51 61/76/61 59/73/59
f 53/77/53 59/78/59 54/79/54
f 17/58/17 59/78/59 62/80/62
f 63/81/63 64/82/64 65/83/65
f 49/54/49 66/84/66 63/81/63
f 67/85/67 65/83/65 68/86/68
f 46/49/46 63/81/63 67/85/67
f 69/87/69 68/86/68 58/88/58
f 44/47/44 67/85/67 69/87/69
f 70/89/70 58/88/58 57/90/57
f 42/45/42 69/87/69 70/89/70
f 71/91/71 70/92/70 57/93/57
f 40/42/40 70/92/70 72/94/72
f 73/95/73 72/94/72 71/91/71
f 38/40/38 72/94/72 74/96/74
f 75/97/75 74/96/74 73/95/73
f 36/38/36 74/96/74 76/98/76
f 77/99/77 76/98/76 75/97/75
f 34/36/34 76/98/76 78/100/78
f 56/101/56 78/100/78 77/99/77
f 32/34/32 78/100/78 79/102/79
f 55/103/55 79/102/79 56/101/56
f 30/32/30 79/102/79 80/104/80
f 81/105/81 80/104/80 55/103/55
f 28/29/28 80/104/80 82/106/82
f 83/107/83 82/106/82 81/105/81
f 26/30/26 82/106/82 84/108/84
f 85/109/85 84/110/84 83/111/83
f 24/25/24 84/110/84 86/112/86
f 87/113/87 86/112/86 85/109/85
f 22/23/22 86/112/86 88/114/88
f 89/115/89 88/114/88 87/113/87
f 19/20/19 88/114/88 90/116/90
f 60/117/60 90/116/90 89/115/89
f 20/21/20 90/116/90 61/118/61
f 91/119/91 53/120/53 52/121/52
f 15/16/15 62/122/62 91/119/91
f 92/123/92 52/121/52 93/124/93
f 13/14/13 91/119/91 92/123/92
f 94/125/94 93/124/93 95/126/95
f 11/12/11 92/123/92 94/125/94
f 96/127/96 95/126/95 97/128/97
f 9/10/9 94/125/94 96/127/96
f 98/129/98 97/130/97 99/131/99
f 7/7/7 96/132/96 98/129/98
f 100/133/100 99/131/99 101/134/101
f 5/5/5 98/129/98 100/133/100
f 102/135/102 101/134/101 103/136/103
f 3/3/3 100/133/100 102/135/102
f 66/84/66 103/136/103 64/82/64
f 66/84/66 3/3/3 102/135/102
f 1/1/1 50/55/50 2/2/2
f 3/3/3 2/2/2 4/4/4
f 5/5/5 4/4/4 6/6/6
f 7/7/7 6/6/6 8/8/8
f 9/10/9 8/137/8 10/11/10
f 11/12/11 10/11/10 12/13/12
f 13/14/13 12/13/12 14/15/14
f 15/16/15 14/15/14 16/17/16
f 18/19/18 21/22/21 19/20/19
f 21/22/21 23/24/23 22/23/22
f 23/24/23 25/26/25 24/25/24
f 25/26/25 27/138/27 26/27/26
f 27/28/27 29/31/29 28/29/28
f 29/31/29 31/33/31 30/32/30
f 31/33/31 33/35/33 32/34/32
f 33/35/33 35/37/35 34/36/34
f 35/37/35 37/39/37 36/38/36
f 37/39/37 39/41/39 38/40/38
f 39/41/39 41/43/41 40/42/40
f 41/43/41 104/139/104 42/44/42
f 42/45/42 104/140/104 43/46/43
f 44/47/44 43/46/43 45/48/45
f 18/141/18 47/52/47 21/51/21
f 47/52/47 35/60/35 33/142/33
f 31/143/31 47/52/47 33/142/33
f 31/143/31 29/144/29 47/52/47
f 29/144/29 27/145/27 47/52/47
f 27/145/27 25/146/25 47/52/47
f 25/146/25 23/50/23 47/52/47
f 46/49/46 45/48/45 48/53/48
f 49/54/49 48/53/48 50/55/50
f 16/56/16 47/147/47 51/57/51
f 47/52/47 50/148/50 48/149/48
f 48/149/48 45/150/45 47/52/47
f 45/150/45 43/151/43 47/52/47
f 43/151/43 104/152/104 47/52/47
f 104/152/104 41/153/41 47/52/47
f 41/153/41 39/154/39 47/52/47
f 39/154/39 37/59/37 47/52/47
f 54/63/54 64/155/64 103/156/103
f 103/156/103 101/157/101 54/63/54
f 101/157/101 99/158/99 54/63/54
f 99/158/99 97/159/97 54/63/54
f 97/159/97 95/160/95 54/63/54
f 95/160/95 93/161/93 54/63/54
f 93/161/93 52/61/52 54/63/54
f 51/64/51 47/162/47 18/65/18
f 56/68/56 77/163/77 54/63/54
f 54/63/54 60/164/60 89/165/89
f 89/165/89 87/166/87 54/63/54
f 87/166/87 85/167/85 54/63/54
f 85/167/85 83/168/83 54/63/54
f 83/168/83 81/169/81 54/63/54
f 81/169/81 55/67/55 54/63/54
f 4/170/4 2/171/2 47/52/47
f 2/171/2 50/148/50 47/52/47
f 47/52/47 16/172/16 14/173/14
f 4/170/4 47/52/47 6/70/6
f 14/173/14 12/174/12 47/52/47
f 12/174/12 10/175/10 47/52/47
f 10/175/10 8/69/8 47/52/47
f 68/176/68 65/177/65 54/63/54
f 65/177/65 64/155/64 54/63/54
f 54/63/54 77/163/77 75/178/75
f 68/176/68 54/63/54 58/72/58
f 75/178/75 73/179/73 54/63/54
f 73/179/73 71/180/71 54/63/54
f 71/180/71 57/71/57 54/63/54
f 59/73/59 61/76/61 60/74/60
f 51/64/51 20/66/20 61/76/61
f 53/77/53 62/80/62 59/78/59
f 17/58/17 51/57/51 59/78/59
f 63/81/63 66/84/66 64/82/64
f 49/54/49 1/1/1 66/84/66
f 67/85/67 63/81/63 65/83/65
f 46/49/46 49/54/49 63/81/63
f 69/87/69 67/85/67 68/86/68
f 44/47/44 46/49/46 67/85/67
f 70/89/70 69/87/69 58/88/58
f 42/45/42 44/47/44 69/87/69
f 71/91/71 72/94/72 70/92/70
f 40/42/40 42/44/42 70/92/70
f 73/95/73 74/96/74 72/94/72
f 38/40/38 40/42/40 72/94/72
f 75/97/75 76/98/76 74/96/74
f 36/38/36 38/40/38 74/96/74
f 77/99/77 78/100/78 76/98/76
f 34/36/34 36/38/36 76/98/76
f 56/101/56 79/102/79 78/100/78
f 32/34/32 34/36/34 78/100/78
f 55/103/55 80/104/80 79/102/79
f 30/32/30 32/34/32 79/102/79
f 81/105/81 82/106/82 80/104/80
f 28/29/28 30/32/30 80/104/80
f 83/107/83 84/108/84 82/106/82
f 26/30/26 28/29/28 82/106/82
f 85/109/85 86/112/86 84/110/84
f 24/25/24 26/27/26 84/110/84
f 87/113/87 88/114/88 86/112/86
f 22/23/22 24/25/24 86/112/86
f 89/115/89 90/116/90 88/114/88
f 19/20/19 22/23/22 88/114/88
f 60/117/60 61/118/61 90/116/90
f 20/21/20 19/20/19 90/116/90
f 91/119/91 62/122/62 53/120/53
f 15/16/15 17/18/17 62/122/62
f 92/123/92 91/119/91 52/121/52
f 13/14/13 15/16/15 91/119/91
f 94/125/94 92/123/92 93/124/93
f 11/12/11 13/14/13 92/123/92
f 96/127/96 94/125/94 95/126/95
f 9/10/9 11/12/11 94/125/94
f 98/129/98 96/132/96 97/130/97
f 7/7/7 9/9/9 96/132/96
f 100/133/100 98/129/98 99/131/99
f 5/5/5 7/7/7 98/129/98
f 102/135/102 100/133/100 101/134/101
f 3/3/3 5/5/5 100/133/100
f 66/84/66 102/135/102 103/136/103
f 66/84/66 1/1/1 3/3/3
